HIERARCHY
ROOT hip
{
  OFFSET 0.00112043 5.09927 -9.65472
  CHANNELS 6 Xposition Yposition Zposition Zrotation Xrotation Yrotation
  JOINT abdomen
  {
    OFFSET 0 -1.186 -1.5018
    CHANNELS 3 Zrotation Xrotation Yrotation
    JOINT abdomen2
    {
      OFFSET 0 9.964 0.2134
      CHANNELS 3 Zrotation Xrotation Yrotation
      JOINT chest
      {
        OFFSET 0 13.134 -3.2573
        CHANNELS 3 Zrotation Xrotation Yrotation
        JOINT neck
        {
          OFFSET 0 20.686 -1.6905
          CHANNELS 3 Zrotation Xrotation Yrotation
          JOINT head
          {
            OFFSET 0 7.238 -0.1237
            CHANNELS 3 Zrotation Xrotation Yrotation
            End Site
            {
              OFFSET 0 0 0
            }
          }
        }
        JOINT lCollar
        {
          OFFSET 1.7069 20.075 5.0056
          CHANNELS 3 Zrotation Xrotation Yrotation
          JOINT lShldr
          {
            OFFSET 13.6458 -0.047 -4.849
            CHANNELS 3 Zrotation Xrotation Yrotation
            JOINT lForeArm
            {
              OFFSET 28.3255 -0.9759 2.2888
              CHANNELS 3 Zrotation Xrotation Yrotation
              JOINT lHand
              {
                OFFSET 22.1583 -0.53 10.8316
                CHANNELS 3 Zrotation Xrotation Yrotation
                JOINT lThumb1
                {
                  OFFSET 0.786 0.112 2.5817
                  CHANNELS 3 Zrotation Xrotation Yrotation
                  JOINT lThumb2
                  {
                    OFFSET 0.3601 -0.878 4.2331
                    CHANNELS 3 Zrotation Xrotation Yrotation
                    JOINT lThumb2_End
                    {
                      OFFSET 1.8127 -1.216 2.2227
                      CHANNELS 3 Zrotation Xrotation Yrotation
                      End Site
                      {
                        OFFSET 0.0181 -0.0122 0.0222
                      }
                    }
                  }
                }
                JOINT lCarpal1
                {
                  OFFSET 0.9571 1.114 1.7695
                  CHANNELS 3 Zrotation Xrotation Yrotation
                  JOINT lIndex1
                  {
                    OFFSET 4.1246 0.487 4.1451
                    CHANNELS 3 Zrotation Xrotation Yrotation
                    JOINT lIndex2
                    {
                      OFFSET 3.4052 -1.454 2.7682
                      CHANNELS 3 Zrotation Xrotation Yrotation
                      JOINT lIndex2_End
                      {
                        OFFSET 1.4531 -1.795 1.2713
                        CHANNELS 3 Zrotation Xrotation Yrotation
                        End Site
                        {
                          OFFSET 0.0145 -0.0179 0.0127
                        }
                      }
                    }
                  }
                  JOINT lMid1
                  {
                    OFFSET 5.6954 0.21 2.1184
                    CHANNELS 3 Zrotation Xrotation Yrotation
                    JOINT lMid2
                    {
                      OFFSET 3.9766 -1.54 2.3863
                      CHANNELS 3 Zrotation Xrotation Yrotation
                      JOINT lMid2_End
                      {
                        OFFSET 1.4042 -1.926 1.125
                        CHANNELS 3 Zrotation Xrotation Yrotation
                        End Site
                        {
                          OFFSET 0.014 -0.0193 0.0113
                        }
                      }
                    }
                  }
                }
                JOINT lCarpal2
                {
                  OFFSET 2.0956 0.66 -0.3894
                  CHANNELS 3 Zrotation Xrotation Yrotation
                  JOINT lRing1
                  {
                    OFFSET 5.0395 -0.09 2.4971
                    CHANNELS 3 Zrotation Xrotation Yrotation
                    JOINT lRing2
                    {
                      OFFSET 3.7921 -1.552 1.4806
                      CHANNELS 3 Zrotation Xrotation Yrotation
                      JOINT lRing2_End
                      {
                        OFFSET 1.4655 -1.808 0.9609
                        CHANNELS 3 Zrotation Xrotation Yrotation
                        End Site
                        {
                          OFFSET 0.0147 -0.0181 0.0096
                        }
                      }
                    }
                  }
                  JOINT lPinky1
                  {
                    OFFSET 4.9141 -1.269 0.3591
                    CHANNELS 3 Zrotation Xrotation Yrotation
                    JOINT lPinky2
                    {
                      OFFSET 3.1477 -1.685 0.8462
                      CHANNELS 3 Zrotation Xrotation Yrotation
                      JOINT lPinky2_End
                      {
                        OFFSET 0.8055 -1.585 0.7955
                        CHANNELS 3 Zrotation Xrotation Yrotation
                        End Site
                        {
                          OFFSET 0.0081 -0.0158 0.008
                        }
                      }
                    }
                  }
                }
              }
            }
          }
        }
        JOINT rCollar
        {
          OFFSET -1.7069 20.075 5.0056
          CHANNELS 3 Zrotation Xrotation Yrotation
          JOINT rShldr
          {
            OFFSET -13.6458 -0.047 -4.849
            CHANNELS 3 Zrotation Xrotation Yrotation
            JOINT rForeArm
            {
              OFFSET -28.3255 -0.9759 2.2888
              CHANNELS 3 Zrotation Xrotation Yrotation
              JOINT rHand
              {
                OFFSET -22.1583 -0.53 10.8316
                CHANNELS 3 Zrotation Xrotation Yrotation
                JOINT rThumb1
                {
                  OFFSET -0.786 0.112 2.5817
                  CHANNELS 3 Zrotation Xrotation Yrotation
                  JOINT rThumb2
                  {
                    OFFSET -0.3601 -0.878 4.2331
                    CHANNELS 3 Zrotation Xrotation Yrotation
                    JOINT rThumb2_End
                    {
                      OFFSET -1.8127 -1.216 2.2227
                      CHANNELS 3 Zrotation Xrotation Yrotation
                      End Site
                      {
                        OFFSET -0.0181 -0.0122 0.0222
                      }
                    }
                  }
                }
                JOINT rCarpal1
                {
                  OFFSET -0.9571 1.114 1.7695
                  CHANNELS 3 Zrotation Xrotation Yrotation
                  JOINT rIndex1
                  {
                    OFFSET -4.1246 0.487 4.1451
                    CHANNELS 3 Zrotation Xrotation Yrotation
                    JOINT rIndex2
                    {
                      OFFSET -3.4052 -1.454 2.7682
                      CHANNELS 3 Zrotation Xrotation Yrotation
                      JOINT rIndex2_End
                      {
                        OFFSET -1.4531 -1.795 1.2713
                        CHANNELS 3 Zrotation Xrotation Yrotation
                        End Site
                        {
                          OFFSET -0.0145 -0.018 0.0127
                        }
                      }
                    }
                  }
                  JOINT rMid1
                  {
                    OFFSET -5.6954 0.21 2.1184
                    CHANNELS 3 Zrotation Xrotation Yrotation
                    JOINT rMid2
                    {
                      OFFSET -3.9766 -1.54 2.3863
                      CHANNELS 3 Zrotation Xrotation Yrotation
                      JOINT rMid2_End
                      {
                        OFFSET -1.4042 -1.926 1.125
                        CHANNELS 3 Zrotation Xrotation Yrotation
                        End Site
                        {
                          OFFSET -0.014 -0.0193 0.0113
                        }
                      }
                    }
                  }
                }
                JOINT rCarpal2
                {
                  OFFSET -2.0956 0.66 -0.3894
                  CHANNELS 3 Zrotation Xrotation Yrotation
                  JOINT rRing1
                  {
                    OFFSET -5.0395 -0.09 2.4971
                    CHANNELS 3 Zrotation Xrotation Yrotation
                    JOINT rRing2
                    {
                      OFFSET -3.7921 -1.552 1.4806
                      CHANNELS 3 Zrotation Xrotation Yrotation
                      JOINT rRing2_End
                      {
                        OFFSET -1.4655 -1.808 0.9609
                        CHANNELS 3 Zrotation Xrotation Yrotation
                        End Site
                        {
                          OFFSET -0.0147 -0.0181 0.0096
                        }
                      }
                    }
                  }
                  JOINT rPinky1
                  {
                    OFFSET -4.9141 -1.269 0.3592
                    CHANNELS 3 Zrotation Xrotation Yrotation
                    JOINT rPinky2
                    {
                      OFFSET -3.1477 -1.685 0.8462
                      CHANNELS 3 Zrotation Xrotation Yrotation
                      JOINT rPinky2_End
                      {
                        OFFSET -0.8055 -1.585 0.7955
                        CHANNELS 3 Zrotation Xrotation Yrotation
                        End Site
                        {
                          OFFSET -0.0081 -0.0158 0.008
                        }
                      }
                    }
                  }
                }
              }
            }
          }
        }
      }
    }
  }
  JOINT lThigh
  {
    OFFSET 8.367 -8.2066 0.5982
    CHANNELS 3 Zrotation Xrotation Yrotation
    JOINT lShin
    {
      OFFSET 2.1923 -43.463 -0.4932
      CHANNELS 3 Zrotation Xrotation Yrotation
      JOINT lFoot
      {
        OFFSET 0.7333 -45.8593 -2.6451
        CHANNELS 3 Zrotation Xrotation Yrotation
        End Site
        {
          OFFSET 2.6618 -4.2699 12.3931
        }
      }
    }
  }
  JOINT rThigh
  {
    OFFSET -8.367 -8.2066 0.5982
    CHANNELS 3 Zrotation Xrotation Yrotation
    JOINT rShin
    {
      OFFSET -2.1923 -43.463 -0.4931
      CHANNELS 3 Zrotation Xrotation Yrotation
      JOINT rFoot
      {
        OFFSET -0.7333 -45.8593 -2.6451
        CHANNELS 3 Zrotation Xrotation Yrotation
        End Site
        {
          OFFSET -2.6618 -4.2699 12.3931
        }
      }
    }
  }
}
MOTION
Frames:	4
Frame Time:	0.0333333
0.00113265 5.23019 -9.64081 -180 -88.6463 -180 -0.0290795 -1.15721 -0.149694 -0.0612024 -2.31432 -0.300067 -0.0612024 -2.31432 -0.300067 2.13357e-006 39.9976 -6.35876e-006 9.37966 -23.4358 9.63327 -19.189 13.2047 1.31912 -58.835 -8.74025 -26.3384 -9.26985 36.2665 16.3421 -56.8182 -41.9996 11.9443 6.16331e-006 -2.5716e-006 2.83138e-006 -3.1591e-007 1.15998e-006 1.55472e-006 1.20967e-006 -5.24256e-006 3.11487e-006 0 0 -3.18055e-015 6.16331e-006 -2.5716e-006 2.83138e-006 -3.1591e-007 1.15998e-006 1.55472e-006 1.20967e-006 -5.24256e-006 3.11487e-006 6.16331e-006 -2.5716e-006 2.83138e-006 -3.1591e-007 1.15998e-006 1.55472e-006 1.20967e-006 -5.24256e-006 3.11487e-006 0 0 -3.18055e-015 6.16331e-006 -2.5716e-006 2.83138e-006 -3.1591e-007 1.15998e-006 1.55472e-006 1.20967e-006 -5.24256e-006 3.11487e-006 6.16331e-006 -2.5716e-006 2.83138e-006 -3.1591e-007 1.15998e-006 1.55472e-006 1.20967e-006 -5.24256e-006 3.11487e-006 20.5695 13.0339 -0.564021 58.0699 -9.16987 26.6959 7.02371 36.4045 -16.3389 56.0889 -40.8302 -14.4483 1.27222e-014 -9.54166e-015 -6.36111e-015 -2.61164e-006 6.25458e-007 -1.39469e-006 -1.05934e-030 -9.54166e-015 -6.36111e-015 1.27222e-014 -6.36111e-015 -3.18055e-015 -6.36111e-015 -6.36111e-015 6.36111e-015 -2.61164e-006 6.25458e-007 -1.39469e-006 -0 -9.54166e-015 -0 -6.36111e-015 -6.36111e-015 6.36111e-015 -2.61164e-006 6.25458e-007 -1.39469e-006 -0 -9.54166e-015 -0 1.27222e-014 -6.36111e-015 -3.18055e-015 -6.36111e-015 -6.36111e-015 6.36111e-015 -2.61164e-006 6.25458e-007 -1.39469e-006 -0 -9.54166e-015 -0 -6.36111e-015 -6.36111e-015 6.36111e-015 -2.61164e-006 6.25458e-007 -1.39469e-006 -0 -9.54166e-015 -0 21.6815 -26.4701 49.6443 56.6444 49.7576 -43.4807 -0.639194 22.6399 10.0818 -21.702 -26.4669 -49.6653 -56.689 49.7448 43.53 0.633364 22.6309 -10.0942 
0.00112043 5.09927 -9.65472 -180 -88.2959 -180 -0.0296205 -1.04688 -0.149574 -0.0619904 -2.09368 -0.299764 -0.0619903 -2.09367 -0.299764 9.91652e-006 39.9982 -5.10004e-006 9.3146 -23.2804 9.56722 -19.4107 12.8899 1.03677 -58.6268 -8.86895 -26.2699 -9.02624 36.2484 16.3159 -57.008 -42.0211 11.9646 3.53113e-031 -3.18055e-015 6.36111e-015 -6.36111e-015 -6.36111e-015 3.18055e-015 3.18055e-015 -3.18055e-015 -1.27222e-014 -0 0 6.36111e-015 -3.18055e-015 0 1.27222e-014 -3.18055e-015 0 -6.36111e-015 -3.18055e-015 -1.27222e-014 -6.36111e-015 -3.18055e-015 0 1.27222e-014 -3.18055e-015 0 -6.36111e-015 -3.18055e-015 -1.27222e-014 -6.36111e-015 -0 0 6.36111e-015 -3.18055e-015 0 1.27222e-014 -3.18055e-015 0 -6.36111e-015 -3.18055e-015 -1.27222e-014 -6.36111e-015 -3.18055e-015 0 1.27222e-014 -3.18055e-015 0 -6.36111e-015 -3.18055e-015 -1.27222e-014 -6.36111e-015 20.8461 12.7158 -0.24292 57.8195 -9.32259 26.6083 6.75298 36.3873 -16.3083 56.2641 -40.8249 -14.5137 -5.84828e-006 -1.35879e-006 -4.37437e-006 6.36111e-015 1.27222e-014 3.18055e-015 6.36111e-015 9.54166e-015 -3.18055e-015 9.54166e-015 0 3.18055e-015 -5.84828e-006 -1.35879e-006 -4.37437e-006 3.18055e-015 3.18055e-015 3.18055e-015 -5.29669e-031 3.18055e-015 9.54166e-015 -5.84828e-006 -1.35879e-006 -4.37437e-006 3.18055e-015 3.18055e-015 3.18055e-015 -5.29669e-031 3.18055e-015 9.54166e-015 9.54166e-015 0 3.18055e-015 -5.84828e-006 -1.35879e-006 -4.37437e-006 3.18055e-015 3.18055e-015 3.18055e-015 -5.29669e-031 3.18055e-015 9.54166e-015 -5.84828e-006 -1.35879e-006 -4.37437e-006 3.18055e-015 3.18055e-015 3.18055e-015 -5.29669e-031 3.18055e-015 9.54166e-015 21.6778 -26.1956 49.6076 56.6441 49.7575 -43.4814 -0.537243 22.6752 10.0117 -21.6983 -26.1923 -49.6287 -56.6885 49.7447 43.5305 0.531097 22.6663 -10.024 
0.00110279 4.96826 -9.66843 -180 -87.9455 -180 -0.0301605 -0.936526 -0.149447 -0.0627771 -1.87299 -0.299448 -0.0627769 -1.87301 -0.299448 1.31765e-005 39.9976 -1.49968e-005 9.24978 -23.1249 9.50141 -19.6338 12.5761 0.753483 -58.4184 -8.99739 -26.2007 -8.78266 36.2302 16.2897 -57.1979 -42.0427 11.9849 6.36111e-015 0 -1.90833e-014 9.54166e-015 -3.18055e-015 -1.27222e-014 3.18055e-015 -3.18055e-015 -1.27222e-014 3.18055e-015 3.18055e-015 -1.27222e-014 3.18055e-015 3.18055e-015 -6.36111e-015 -3.18055e-015 -6.36111e-015 -1.59028e-014 -1.05934e-030 -6.36111e-015 -9.54166e-015 3.18055e-015 3.18055e-015 -6.36111e-015 -3.18055e-015 -6.36111e-015 -1.59028e-014 -1.05934e-030 -6.36111e-015 -9.54166e-015 3.18055e-015 3.18055e-015 -1.27222e-014 3.18055e-015 3.18055e-015 -6.36111e-015 -3.18055e-015 -6.36111e-015 -1.59028e-014 -1.05934e-030 -6.36111e-015 -9.54166e-015 3.18055e-015 3.18055e-015 -6.36111e-015 -3.18055e-015 -6.36111e-015 -1.59028e-014 -1.05934e-030 -6.36111e-015 -9.54166e-015 21.1241 12.3991 0.0793517 57.5689 -9.47492 26.5201 6.4823 36.37 -16.2778 56.4392 -40.8199 -14.5792 -1.39709e-006 -1.58214e-006 2.61054e-006 4.63445e-006 3.56586e-006 3.68693e-007 3.23737e-006 1.98372e-006 2.97923e-006 -6.36111e-015 -3.18055e-015 3.18055e-015 -1.39709e-006 -1.58214e-006 2.61054e-006 4.63445e-006 3.56586e-006 3.68693e-007 3.23737e-006 1.98372e-006 2.97923e-006 -1.39709e-006 -1.58214e-006 2.61054e-006 4.63445e-006 3.56586e-006 3.68693e-007 3.23737e-006 1.98372e-006 2.97923e-006 -6.36111e-015 -3.18055e-015 3.18055e-015 -1.39709e-006 -1.58214e-006 2.61054e-006 4.63445e-006 3.56586e-006 3.68693e-007 3.23737e-006 1.98372e-006 2.97923e-006 -1.39709e-006 -1.58214e-006 2.61054e-006 4.63445e-006 3.56586e-006 3.68693e-007 3.23737e-006 1.98372e-006 2.97923e-006 21.6744 -25.9209 49.5709 56.6435 49.7574 -43.4819 -0.435209 22.7104 9.94149 -21.6947 -25.9176 -49.5922 -56.6878 49.7446 43.5311 0.428845 22.7015 -9.95374 
0.00108815 4.83717 -9.68196 -180 -87.5951 -180 -0.0307014 -0.826262 -0.149325 -0.0635668 -1.6524 -0.299138 -0.0635668 -1.65243 -0.299138 -1.12919e-005 39.9977 2.29791e-005 9.18519 -22.9693 9.43583 -19.8582 12.2636 0.46942 -58.2098 -9.12555 -26.1311 -8.53919 36.2119 16.2637 -57.3878 -42.0643 12.0051 -1.21605e-006 5.24242e-006 -3.10698e-006 6.36111e-015 -6.36111e-015 1.27222e-014 -5.07338e-007 4.46568e-006 -4.41758e-006 3.18055e-015 3.18055e-015 -6.36111e-015 -1.21605e-006 5.24242e-006 -3.10698e-006 6.36111e-015 -6.36111e-015 9.54166e-015 -5.07338e-007 4.46568e-006 -4.41758e-006 -1.21605e-006 5.24242e-006 -3.10698e-006 6.36111e-015 -6.36111e-015 9.54166e-015 -5.07338e-007 4.46568e-006 -4.41758e-006 3.18055e-015 3.18055e-015 -6.36111e-015 -1.21605e-006 5.24242e-006 -3.10698e-006 6.36111e-015 -6.36111e-015 9.54166e-015 -5.07338e-007 4.46568e-006 -4.41758e-006 -1.21605e-006 5.24242e-006 -3.10698e-006 6.36111e-015 -6.36111e-015 9.54166e-015 -5.07338e-007 4.46568e-006 -4.41758e-006 21.4036 12.0841 0.402719 57.3178 -9.62687 26.4311 6.21175 36.3525 -16.2474 56.6143 -40.815 -14.6447 -3.18055e-015 1.27222e-014 -6.36111e-015 -3.23755e-006 -1.98254e-006 -2.97992e-006 9.54166e-015 -9.54166e-015 -0 -3.18055e-015 6.36111e-015 -6.36111e-015 -6.36111e-015 -3.18055e-015 -6.36111e-015 -3.23755e-006 -1.98254e-006 -2.97992e-006 3.18055e-015 -6.36111e-015 -3.18055e-015 -6.36111e-015 -3.18055e-015 -6.36111e-015 -3.23755e-006 -1.98254e-006 -2.97992e-006 3.18055e-015 -6.36111e-015 -3.18055e-015 -3.18055e-015 6.36111e-015 -6.36111e-015 -6.36111e-015 -3.18055e-015 -6.36111e-015 -3.23755e-006 -1.98254e-006 -2.97992e-006 3.18055e-015 -6.36111e-015 -3.18055e-015 -6.36111e-015 -3.18055e-015 -6.36111e-015 -3.23755e-006 -1.98254e-006 -2.97992e-006 3.18055e-015 -6.36111e-015 -3.18055e-015 21.6712 -25.6463 49.5344 56.6429 49.7573 -43.4825 -0.333171 22.7455 9.87119 -21.6914 -25.643 -49.5557 -56.6873 49.7444 43.5316 0.326501 22.7366 -9.88339 
